<svg width="526" height="330" viewBox="0 0 526 330" fill="none" xmlns="http://www.w3.org/2000/svg">
<rect width="526" height="330" rx="10" fill="white"/>
<rect x="35" y="65.2097" width="66.8513" height="46.1511" rx="5.47962" fill="#155DFC" fill-opacity="0.05"/>
<rect x="35" y="65.2097" width="66.8513" height="46.1511" rx="5.47962" stroke="#155DFC" stroke-width="0.547962"/>
<path d="M46.0895 83.8853C45.8362 83.8853 45.5928 83.8653 45.3595 83.8253C45.1262 83.7919 44.9562 83.7486 44.8495 83.6953V82.6553C44.9828 82.7086 45.1428 82.7553 45.3295 82.7953C45.5162 82.8286 45.7062 82.8453 45.8995 82.8453C46.3128 82.8453 46.6162 82.7686 46.8095 82.6153C47.0028 82.4619 47.0995 82.2019 47.0995 81.8353V76.5853H48.3995V81.8953C48.3995 82.5619 48.2028 83.0619 47.8095 83.3953C47.4162 83.7219 46.8428 83.8853 46.0895 83.8853ZM49.6071 83.7853V76.5853H50.9071V83.7853H49.6071ZM50.2271 83.7853V82.7553H54.7871V83.7853H50.2271ZM50.2271 80.5853V79.5753H54.4371V80.5853H50.2271ZM50.2271 77.6153V76.5853H54.6771V77.6153H50.2271ZM55.9059 83.7853V76.5853H57.2059V83.7853H55.9059ZM56.5259 83.7853V82.7553H61.0859V83.7853H56.5259ZM56.5259 80.5853V79.5753H60.7359V80.5853H56.5259ZM56.5259 77.6153V76.5853H60.9759V77.6153H56.5259ZM61.6422 84.5153L64.2522 76.1553H65.3522L62.7422 84.5153H61.6422ZM66.3356 83.7853V76.5853H67.9456L71.4556 82.8453L71.0856 82.9353V76.5853H72.3456V83.7853H70.7356L67.2256 77.5253L67.5956 77.4353V83.7853H66.3356ZM73.5817 83.7853V76.5853H74.8817V83.7853H73.5817ZM74.2017 83.7853V82.7553H78.7617V83.7853H74.2017ZM74.2017 80.5853V79.5753H78.4117V80.5853H74.2017ZM74.2017 77.6153V76.5853H78.6517V77.6153H74.2017ZM79.8805 83.7853V76.5853H81.1805V83.7853H79.8805ZM80.5005 83.7853V82.7553H85.0605V83.7853H80.5005ZM80.5005 80.5853V79.5753H84.7105V80.5853H80.5005ZM80.5005 77.6153V76.5853H84.9505V77.6153H80.5005ZM88.161 83.7853V77.6153H85.771V76.5853H91.851V77.6153H89.461V83.7853H88.161ZM55.7399 99.7853V92.5853H57.0399V99.7853H55.7399ZM56.3599 99.7853V98.7553H60.9199V99.7853H56.3599ZM56.3599 96.5853V95.5753H60.5699V96.5853H56.3599ZM56.3599 93.6153V92.5853H60.8099V93.6153H56.3599ZM65.3641 99.7853L63.7941 97.5053L61.6741 94.6853H63.1041L64.5241 96.7553L66.7941 99.7853H65.3641ZM63.8941 96.7153L65.3241 94.6853H66.7241L64.5041 97.5953L63.8941 96.7153ZM64.3941 97.6553L62.8541 99.7853H61.4641L63.7941 96.7653L64.3941 97.6553ZM70.591 99.7853C70.5577 99.6519 70.531 99.5053 70.511 99.3453C70.4977 99.1853 70.491 98.9919 70.491 98.7653H70.451V96.3453C70.451 96.0786 70.3743 95.8786 70.221 95.7453C70.0743 95.6053 69.8477 95.5353 69.541 95.5353C69.241 95.5353 69.001 95.5919 68.821 95.7053C68.6477 95.8119 68.541 95.9686 68.501 96.1753H67.291C67.3443 95.7019 67.571 95.3186 67.971 95.0253C68.371 94.7319 68.9077 94.5853 69.581 94.5853C70.281 94.5853 70.811 94.7453 71.171 95.0653C71.531 95.3786 71.711 95.8419 71.711 96.4553V98.7653C71.711 98.9253 71.721 99.0886 71.741 99.2553C71.7677 99.4219 71.8043 99.5986 71.851 99.7853H70.591ZM68.821 99.8853C68.3077 99.8853 67.8977 99.7586 67.591 99.5053C67.291 99.2453 67.141 98.8986 67.141 98.4653C67.141 97.9986 67.311 97.6286 67.651 97.3553C67.991 97.0819 68.471 96.8986 69.091 96.8053L70.681 96.5653V97.3653L69.301 97.5753C69.001 97.6219 68.7743 97.7053 68.621 97.8253C68.4743 97.9453 68.401 98.1119 68.401 98.3253C68.401 98.5186 68.471 98.6686 68.611 98.7753C68.751 98.8753 68.9443 98.9253 69.191 98.9253C69.551 98.9253 69.851 98.8353 70.091 98.6553C70.331 98.4753 70.451 98.2553 70.451 97.9953L70.591 98.7653C70.4577 99.1319 70.2377 99.4119 69.931 99.6053C69.631 99.7919 69.261 99.8853 68.821 99.8853ZM72.9872 99.7853V94.6853H74.2172V95.8853H74.2472V99.7853H72.9872ZM76.4172 99.7853V96.4953C76.4172 96.1953 76.3405 95.9753 76.1872 95.8353C76.0405 95.6886 75.8305 95.6153 75.5572 95.6153C75.3172 95.6153 75.0972 95.6719 74.8972 95.7853C74.6972 95.8986 74.5372 96.0586 74.4172 96.2653C74.3038 96.4719 74.2472 96.7119 74.2472 96.9853L74.1172 95.8153C74.2905 95.4419 74.5405 95.1453 74.8672 94.9253C75.1938 94.6986 75.5738 94.5853 76.0072 94.5853C76.5272 94.5853 76.9372 94.7353 77.2372 95.0353C77.5372 95.3286 77.6872 95.7086 77.6872 96.1753V99.7853H76.4172ZM79.8472 99.7853V96.4953C79.8472 96.1953 79.7738 95.9753 79.6272 95.8353C79.4805 95.6886 79.2705 95.6153 78.9972 95.6153C78.7505 95.6153 78.5272 95.6719 78.3272 95.7853C78.1272 95.8986 77.9705 96.0586 77.8572 96.2653C77.7438 96.4719 77.6872 96.7119 77.6872 96.9853L77.4672 95.8153C77.6338 95.4419 77.8872 95.1453 78.2272 94.9253C78.5672 94.6986 78.9605 94.5853 79.4072 94.5853C79.9405 94.5853 80.3572 94.7386 80.6572 95.0453C80.9638 95.3453 81.1172 95.7453 81.1172 96.2453V99.7853H79.8472Z" fill="#155DFC"/>
<rect x="35" y="141.924" width="66.8513" height="46.1511" rx="5.47962" fill="#155DFC" fill-opacity="0.05"/>
<rect x="35" y="141.924" width="66.8513" height="46.1511" rx="5.47962" stroke="#155DFC" stroke-width="0.547962"/>
<path d="M56.0861 160.5V159.54H58.0961C58.4627 159.54 58.7461 159.44 58.9461 159.24C59.1461 159.033 59.2461 158.753 59.2461 158.4C59.2461 158.033 59.1394 157.743 58.9261 157.53C58.7127 157.317 58.4161 157.21 58.0361 157.21H56.0861V156.25H57.9461C58.3061 156.25 58.5827 156.163 58.7761 155.99C58.9694 155.817 59.0661 155.567 59.0661 155.24C59.0661 154.92 58.9727 154.677 58.7861 154.51C58.6061 154.343 58.3394 154.26 57.9861 154.26H56.0861V153.3H58.2261C58.8727 153.3 59.3894 153.463 59.7761 153.79C60.1694 154.11 60.3661 154.547 60.3661 155.1C60.3661 155.447 60.2827 155.75 60.1161 156.01C59.9561 156.263 59.7394 156.46 59.4661 156.6C59.1927 156.74 58.8827 156.81 58.5361 156.81L58.5861 156.6C58.9527 156.6 59.2861 156.683 59.5861 156.85C59.8861 157.01 60.1227 157.237 60.2961 157.53C60.4761 157.823 60.5661 158.163 60.5661 158.55C60.5661 158.943 60.4727 159.287 60.2861 159.58C60.1061 159.873 59.8494 160.1 59.5161 160.26C59.1894 160.42 58.8027 160.5 58.3561 160.5H56.0861ZM55.0661 160.5V153.3H56.3661V160.5H55.0661ZM63.8814 160.6C63.3414 160.6 62.8647 160.487 62.4514 160.26C62.0447 160.033 61.7281 159.72 61.5014 159.32C61.2747 158.913 61.1614 158.45 61.1614 157.93C61.1614 157.41 61.2747 156.953 61.5014 156.56C61.7281 156.167 62.0447 155.86 62.4514 155.64C62.8647 155.413 63.3414 155.3 63.8814 155.3C64.4281 155.3 64.9047 155.413 65.3114 155.64C65.7181 155.86 66.0347 156.167 66.2614 156.56C66.4881 156.953 66.6014 157.41 66.6014 157.93C66.6014 158.45 66.4847 158.913 66.2514 159.32C66.0247 159.72 65.7081 160.033 65.3014 160.26C64.8947 160.487 64.4214 160.6 63.8814 160.6ZM63.8814 159.59C64.1481 159.59 64.3881 159.523 64.6014 159.39C64.8147 159.25 64.9814 159.057 65.1014 158.81C65.2214 158.557 65.2814 158.26 65.2814 157.92C65.2814 157.42 65.1481 157.027 64.8814 156.74C64.6214 156.453 64.2881 156.31 63.8814 156.31C63.4747 156.31 63.1381 156.453 62.8714 156.74C62.6047 157.027 62.4714 157.42 62.4714 157.92C62.4714 158.26 62.5314 158.557 62.6514 158.81C62.7781 159.057 62.9447 159.25 63.1514 159.39C63.3647 159.523 63.6081 159.59 63.8814 159.59ZM70.6887 160.5C70.6553 160.367 70.6287 160.22 70.6087 160.06C70.5953 159.9 70.5887 159.707 70.5887 159.48H70.5487V157.06C70.5487 156.793 70.472 156.593 70.3187 156.46C70.172 156.32 69.9453 156.25 69.6387 156.25C69.3387 156.25 69.0987 156.307 68.9187 156.42C68.7453 156.527 68.6387 156.683 68.5987 156.89H67.3887C67.442 156.417 67.6687 156.033 68.0687 155.74C68.4687 155.447 69.0053 155.3 69.6787 155.3C70.3787 155.3 70.9087 155.46 71.2687 155.78C71.6287 156.093 71.8087 156.557 71.8087 157.17V159.48C71.8087 159.64 71.8187 159.803 71.8387 159.97C71.8653 160.137 71.902 160.313 71.9487 160.5H70.6887ZM68.9187 160.6C68.4053 160.6 67.9953 160.473 67.6887 160.22C67.3887 159.96 67.2387 159.613 67.2387 159.18C67.2387 158.713 67.4087 158.343 67.7487 158.07C68.0887 157.797 68.5687 157.613 69.1887 157.52L70.7787 157.28V158.08L69.3987 158.29C69.0987 158.337 68.872 158.42 68.7187 158.54C68.572 158.66 68.4987 158.827 68.4987 159.04C68.4987 159.233 68.5687 159.383 68.7087 159.49C68.8487 159.59 69.042 159.64 69.2887 159.64C69.6487 159.64 69.9487 159.55 70.1887 159.37C70.4287 159.19 70.5487 158.97 70.5487 158.71L70.6887 159.48C70.5553 159.847 70.3353 160.127 70.0287 160.32C69.7287 160.507 69.3587 160.6 68.9187 160.6ZM73.0848 160.5V155.4H74.3148V156.63H74.3448V160.5H73.0848ZM74.3448 157.84L74.2148 156.63C74.3348 156.197 74.5382 155.867 74.8248 155.64C75.1115 155.413 75.4548 155.3 75.8548 155.3C75.9948 155.3 76.0948 155.313 76.1548 155.34V156.53C76.1215 156.517 76.0748 156.51 76.0148 156.51C75.9548 156.503 75.8815 156.5 75.7948 156.5C75.3082 156.5 74.9448 156.607 74.7048 156.82C74.4648 157.033 74.3448 157.373 74.3448 157.84ZM80.5041 160.5V159.35L80.6041 159.37C80.5175 159.743 80.3075 160.043 79.9741 160.27C79.6408 160.49 79.2441 160.6 78.7841 160.6C78.3175 160.6 77.9108 160.493 77.5641 160.28C77.2241 160.06 76.9608 159.753 76.7741 159.36C76.5875 158.967 76.4941 158.503 76.4941 157.97C76.4941 157.43 76.5908 156.96 76.7841 156.56C76.9775 156.16 77.2475 155.85 77.5941 155.63C77.9475 155.41 78.3575 155.3 78.8241 155.3C79.3041 155.3 79.7008 155.417 80.0141 155.65C80.3275 155.877 80.5208 156.193 80.5941 156.6L80.4641 156.61V153.3H81.7341V160.5H80.5041ZM79.1541 159.57C79.5608 159.57 79.8841 159.43 80.1241 159.15C80.3708 158.863 80.4941 158.463 80.4941 157.95C80.4941 157.437 80.3708 157.04 80.1241 156.76C79.8775 156.48 79.5508 156.34 79.1441 156.34C78.7441 156.34 78.4208 156.483 78.1741 156.77C77.9275 157.05 77.8041 157.447 77.8041 157.96C77.8041 158.473 77.9275 158.87 78.1741 159.15C78.4208 159.43 78.7475 159.57 79.1541 159.57ZM55.7399 176.5V169.3H57.0399V176.5H55.7399ZM56.3599 176.5V175.47H60.9199V176.5H56.3599ZM56.3599 173.3V172.29H60.5699V173.3H56.3599ZM56.3599 170.33V169.3H60.8099V170.33H56.3599ZM65.3641 176.5L63.7941 174.22L61.6741 171.4H63.1041L64.5241 173.47L66.7941 176.5H65.3641ZM63.8941 173.43L65.3241 171.4H66.7241L64.5041 174.31L63.8941 173.43ZM64.3941 174.37L62.8541 176.5H61.4641L63.7941 173.48L64.3941 174.37ZM70.591 176.5C70.5577 176.367 70.531 176.22 70.511 176.06C70.4977 175.9 70.491 175.707 70.491 175.48H70.451V173.06C70.451 172.793 70.3743 172.593 70.221 172.46C70.0743 172.32 69.8477 172.25 69.541 172.25C69.241 172.25 69.001 172.307 68.821 172.42C68.6477 172.527 68.541 172.683 68.501 172.89H67.291C67.3443 172.417 67.571 172.033 67.971 171.74C68.371 171.447 68.9077 171.3 69.581 171.3C70.281 171.3 70.811 171.46 71.171 171.78C71.531 172.093 71.711 172.557 71.711 173.17V175.48C71.711 175.64 71.721 175.803 71.741 175.97C71.7677 176.137 71.8043 176.313 71.851 176.5H70.591ZM68.821 176.6C68.3077 176.6 67.8977 176.473 67.591 176.22C67.291 175.96 67.141 175.613 67.141 175.18C67.141 174.713 67.311 174.343 67.651 174.07C67.991 173.797 68.471 173.613 69.091 173.52L70.681 173.28V174.08L69.301 174.29C69.001 174.337 68.7743 174.42 68.621 174.54C68.4743 174.66 68.401 174.827 68.401 175.04C68.401 175.233 68.471 175.383 68.611 175.49C68.751 175.59 68.9443 175.64 69.191 175.64C69.551 175.64 69.851 175.55 70.091 175.37C70.331 175.19 70.451 174.97 70.451 174.71L70.591 175.48C70.4577 175.847 70.2377 176.127 69.931 176.32C69.631 176.507 69.261 176.6 68.821 176.6ZM72.9872 176.5V171.4H74.2172V172.6H74.2472V176.5H72.9872ZM76.4172 176.5V173.21C76.4172 172.91 76.3405 172.69 76.1872 172.55C76.0405 172.403 75.8305 172.33 75.5572 172.33C75.3172 172.33 75.0972 172.387 74.8972 172.5C74.6972 172.613 74.5372 172.773 74.4172 172.98C74.3038 173.187 74.2472 173.427 74.2472 173.7L74.1172 172.53C74.2905 172.157 74.5405 171.86 74.8672 171.64C75.1938 171.413 75.5738 171.3 76.0072 171.3C76.5272 171.3 76.9372 171.45 77.2372 171.75C77.5372 172.043 77.6872 172.423 77.6872 172.89V176.5H76.4172ZM79.8472 176.5V173.21C79.8472 172.91 79.7738 172.69 79.6272 172.55C79.4805 172.403 79.2705 172.33 78.9972 172.33C78.7505 172.33 78.5272 172.387 78.3272 172.5C78.1272 172.613 77.9705 172.773 77.8572 172.98C77.7438 173.187 77.6872 173.427 77.6872 173.7L77.4672 172.53C77.6338 172.157 77.8872 171.86 78.2272 171.64C78.5672 171.413 78.9605 171.3 79.4072 171.3C79.9405 171.3 80.3572 171.453 80.6572 171.76C80.9638 172.06 81.1172 172.46 81.1172 172.96V176.5H79.8472Z" fill="#155DFC"/>
<rect x="232.266" y="148.5" width="86.578" height="30.1511" rx="5.47962" fill="#155DFC" fill-opacity="0.05"/>
<rect x="232.266" y="148.5" width="86.578" height="30.1511" rx="5.47962" stroke="#155DFC" stroke-width="0.547962"/>
<path d="M250.366 167.166C249.459 167.166 248.736 166.959 248.196 166.546C247.663 166.126 247.349 165.536 247.256 164.776H248.506C248.566 165.216 248.763 165.559 249.096 165.806C249.429 166.046 249.866 166.166 250.406 166.166C250.853 166.166 251.193 166.086 251.426 165.926C251.666 165.759 251.786 165.529 251.786 165.236C251.786 164.976 251.713 164.766 251.566 164.606C251.419 164.446 251.173 164.316 250.826 164.216L249.526 163.826C248.866 163.626 248.379 163.362 248.066 163.036C247.759 162.709 247.606 162.299 247.606 161.806C247.606 161.392 247.713 161.032 247.926 160.726C248.139 160.419 248.439 160.182 248.826 160.016C249.219 159.849 249.676 159.766 250.196 159.766C250.996 159.766 251.633 159.962 252.106 160.356C252.586 160.742 252.859 161.269 252.926 161.936H251.676C251.603 161.536 251.436 161.242 251.176 161.056C250.916 160.862 250.566 160.766 250.126 160.766C249.739 160.766 249.433 160.842 249.206 160.996C248.979 161.149 248.866 161.359 248.866 161.626C248.866 161.846 248.933 162.032 249.066 162.186C249.206 162.339 249.463 162.472 249.836 162.586L251.156 162.986C251.816 163.179 252.296 163.442 252.596 163.776C252.896 164.109 253.046 164.532 253.046 165.046C253.046 165.726 252.809 166.249 252.336 166.616C251.869 166.982 251.213 167.166 250.366 167.166ZM255.778 167.076V160.906H253.388V159.876H259.468V160.906H257.078V167.076H255.778ZM263.21 167.176C262.237 167.176 261.5 166.899 261 166.346C260.5 165.792 260.25 164.999 260.25 163.966V159.876H261.55V164.156C261.55 164.816 261.697 165.309 261.99 165.636C262.283 165.956 262.693 166.116 263.22 166.116C263.747 166.116 264.157 165.956 264.45 165.636C264.743 165.309 264.89 164.819 264.89 164.166V159.876H266.19V163.976C266.19 165.002 265.937 165.792 265.43 166.346C264.93 166.899 264.19 167.176 263.21 167.176ZM268.151 167.076V166.036H270.011C270.558 166.036 271.024 165.926 271.411 165.706C271.798 165.486 272.091 165.179 272.291 164.786C272.498 164.392 272.601 163.942 272.601 163.436C272.601 162.936 272.498 162.496 272.291 162.116C272.091 161.736 271.798 161.442 271.411 161.236C271.031 161.022 270.564 160.916 270.011 160.916H268.171V159.876H270.011C270.798 159.876 271.484 160.022 272.071 160.316C272.658 160.609 273.111 161.026 273.431 161.566C273.758 162.099 273.921 162.729 273.921 163.456C273.921 164.182 273.758 164.819 273.431 165.366C273.104 165.906 272.648 166.326 272.061 166.626C271.481 166.926 270.801 167.076 270.021 167.076H268.151ZM267.361 167.076V159.876H268.661V167.076H267.361ZM276.505 167.076V164.046L273.805 159.876H275.375L277.575 163.566H276.875L279.065 159.876H280.505L277.805 164.046V167.076H276.505ZM283.021 167.176C282.395 167.176 281.931 167.029 281.631 166.736C281.338 166.436 281.191 165.989 281.191 165.396V160.816L282.461 160.346V165.426C282.461 165.672 282.528 165.856 282.661 165.976C282.795 166.096 283.005 166.156 283.291 166.156C283.405 166.156 283.505 166.149 283.591 166.136C283.685 166.116 283.771 166.092 283.851 166.066V167.046C283.771 167.086 283.658 167.116 283.511 167.136C283.365 167.162 283.201 167.176 283.021 167.176ZM280.211 162.966V161.976H283.851V162.966H280.211ZM287.906 167.076C287.872 166.942 287.846 166.796 287.826 166.636C287.812 166.476 287.806 166.282 287.806 166.056H287.766V163.636C287.766 163.369 287.689 163.169 287.536 163.036C287.389 162.896 287.162 162.826 286.856 162.826C286.556 162.826 286.316 162.882 286.136 162.996C285.962 163.102 285.856 163.259 285.816 163.466H284.606C284.659 162.992 284.886 162.609 285.286 162.316C285.686 162.022 286.222 161.876 286.896 161.876C287.596 161.876 288.126 162.036 288.486 162.356C288.846 162.669 289.026 163.132 289.026 163.746V166.056C289.026 166.216 289.036 166.379 289.056 166.546C289.082 166.712 289.119 166.889 289.166 167.076H287.906ZM286.136 167.176C285.622 167.176 285.212 167.049 284.906 166.796C284.606 166.536 284.456 166.189 284.456 165.756C284.456 165.289 284.626 164.919 284.966 164.646C285.306 164.372 285.786 164.189 286.406 164.096L287.996 163.856V164.656L286.616 164.866C286.316 164.912 286.089 164.996 285.936 165.116C285.789 165.236 285.716 165.402 285.716 165.616C285.716 165.809 285.786 165.959 285.926 166.066C286.066 166.166 286.259 166.216 286.506 166.216C286.866 166.216 287.166 166.126 287.406 165.946C287.646 165.766 287.766 165.546 287.766 165.286L287.906 166.056C287.772 166.422 287.552 166.702 287.246 166.896C286.946 167.082 286.576 167.176 286.136 167.176ZM293.212 167.176C292.725 167.176 292.325 167.062 292.012 166.836C291.705 166.602 291.515 166.282 291.442 165.876L291.532 165.866V167.076H290.302V159.876H291.562V163.126L291.472 163.106C291.558 162.726 291.762 162.426 292.082 162.206C292.408 161.986 292.812 161.876 293.292 161.876C293.745 161.876 294.138 161.986 294.472 162.206C294.812 162.419 295.075 162.722 295.262 163.116C295.448 163.509 295.542 163.972 295.542 164.506C295.542 165.046 295.445 165.516 295.252 165.916C295.058 166.316 294.788 166.626 294.442 166.846C294.095 167.066 293.685 167.176 293.212 167.176ZM292.892 166.136C293.298 166.136 293.622 165.996 293.862 165.716C294.102 165.429 294.222 165.029 294.222 164.516C294.222 164.002 294.098 163.606 293.852 163.326C293.612 163.046 293.288 162.906 292.882 162.906C292.482 162.906 292.158 163.049 291.912 163.336C291.665 163.616 291.542 164.012 291.542 164.526C291.542 165.039 291.665 165.436 291.912 165.716C292.158 165.996 292.485 166.136 292.892 166.136ZM296.513 167.076V159.876H297.773V167.076H296.513ZM301.4 167.176C300.86 167.176 300.387 167.062 299.98 166.836C299.58 166.609 299.267 166.296 299.04 165.896C298.82 165.496 298.71 165.036 298.71 164.516C298.71 163.996 298.82 163.539 299.04 163.146C299.267 162.746 299.58 162.436 299.98 162.216C300.38 161.989 300.847 161.876 301.38 161.876C301.887 161.876 302.327 161.982 302.7 162.196C303.074 162.402 303.364 162.696 303.57 163.076C303.777 163.456 303.88 163.899 303.88 164.406C303.88 164.499 303.877 164.586 303.87 164.666C303.864 164.746 303.854 164.826 303.84 164.906H299.49V164.026H302.87L302.61 164.266C302.61 163.786 302.5 163.426 302.28 163.186C302.06 162.946 301.754 162.826 301.36 162.826C300.934 162.826 300.594 162.972 300.34 163.266C300.094 163.559 299.97 163.982 299.97 164.536C299.97 165.082 300.094 165.502 300.34 165.796C300.594 166.082 300.95 166.226 301.41 166.226C301.677 166.226 301.91 166.176 302.11 166.076C302.31 165.976 302.457 165.822 302.55 165.616H303.74C303.574 166.096 303.29 166.476 302.89 166.756C302.497 167.036 302 167.176 301.4 167.176Z" fill="#155DFC"/>
<rect x="405.422" y="148.5" width="86.578" height="30.1511" rx="5.47962" fill="#155DFC"/>
<rect x="405.422" y="148.5" width="86.578" height="30.1511" rx="5.47962" stroke="white" stroke-width="0.547962"/>
<path d="M433.014 167.166C432.108 167.166 431.384 166.959 430.844 166.546C430.311 166.126 429.998 165.536 429.904 164.776H431.154C431.214 165.216 431.411 165.559 431.744 165.806C432.078 166.046 432.514 166.166 433.054 166.166C433.501 166.166 433.841 166.086 434.074 165.926C434.314 165.759 434.434 165.529 434.434 165.236C434.434 164.976 434.361 164.766 434.214 164.606C434.068 164.446 433.821 164.316 433.474 164.216L432.174 163.826C431.514 163.626 431.028 163.362 430.714 163.036C430.408 162.709 430.254 162.299 430.254 161.806C430.254 161.392 430.361 161.032 430.574 160.726C430.788 160.419 431.088 160.182 431.474 160.016C431.868 159.849 432.324 159.766 432.844 159.766C433.644 159.766 434.281 159.962 434.754 160.356C435.234 160.742 435.508 161.269 435.574 161.936H434.324C434.251 161.536 434.084 161.242 433.824 161.056C433.564 160.862 433.214 160.766 432.774 160.766C432.388 160.766 432.081 160.842 431.854 160.996C431.628 161.149 431.514 161.359 431.514 161.626C431.514 161.846 431.581 162.032 431.714 162.186C431.854 162.339 432.111 162.472 432.484 162.586L433.804 162.986C434.464 163.179 434.944 163.442 435.244 163.776C435.544 164.109 435.694 164.532 435.694 165.046C435.694 165.726 435.458 166.249 434.984 166.616C434.518 166.982 433.861 167.166 433.014 167.166ZM438.902 167.176C438.276 167.176 437.812 167.029 437.512 166.736C437.219 166.436 437.072 165.989 437.072 165.396V160.816L438.342 160.346V165.426C438.342 165.672 438.409 165.856 438.542 165.976C438.676 166.096 438.886 166.156 439.172 166.156C439.286 166.156 439.386 166.149 439.472 166.136C439.566 166.116 439.652 166.092 439.732 166.066V167.046C439.652 167.086 439.539 167.116 439.392 167.136C439.246 167.162 439.082 167.176 438.902 167.176ZM436.092 162.966V161.976H439.732V162.966H436.092ZM442.227 167.176C441.874 167.176 441.567 167.102 441.307 166.956C441.054 166.802 440.857 166.596 440.717 166.336C440.584 166.076 440.517 165.782 440.517 165.456V161.976H441.777V165.196C441.777 165.509 441.854 165.746 442.007 165.906C442.167 166.066 442.39 166.146 442.677 166.146C442.937 166.146 443.164 166.086 443.357 165.966C443.557 165.846 443.714 165.679 443.827 165.466C443.947 165.246 444.007 164.999 444.007 164.726L444.137 165.946C443.97 166.319 443.72 166.619 443.387 166.846C443.06 167.066 442.674 167.176 442.227 167.176ZM444.047 167.076V165.876H444.007V161.976H445.277V167.076H444.047ZM450.203 167.076V165.926L450.303 165.946C450.217 166.319 450.007 166.619 449.673 166.846C449.34 167.066 448.943 167.176 448.483 167.176C448.017 167.176 447.61 167.069 447.263 166.856C446.923 166.636 446.66 166.329 446.473 165.936C446.287 165.542 446.193 165.079 446.193 164.546C446.193 164.006 446.29 163.536 446.483 163.136C446.677 162.736 446.947 162.426 447.293 162.206C447.647 161.986 448.057 161.876 448.523 161.876C449.003 161.876 449.4 161.992 449.713 162.226C450.027 162.452 450.22 162.769 450.293 163.176L450.163 163.186V159.876H451.433V167.076H450.203ZM448.853 166.146C449.26 166.146 449.583 166.006 449.823 165.726C450.07 165.439 450.193 165.039 450.193 164.526C450.193 164.012 450.07 163.616 449.823 163.336C449.577 163.056 449.25 162.916 448.843 162.916C448.443 162.916 448.12 163.059 447.873 163.346C447.627 163.626 447.503 164.022 447.503 164.536C447.503 165.049 447.627 165.446 447.873 165.726C448.12 166.006 448.447 166.146 448.853 166.146ZM455.064 167.176C454.524 167.176 454.051 167.062 453.644 166.836C453.244 166.609 452.931 166.296 452.704 165.896C452.484 165.496 452.374 165.036 452.374 164.516C452.374 163.996 452.484 163.539 452.704 163.146C452.931 162.746 453.244 162.436 453.644 162.216C454.044 161.989 454.511 161.876 455.044 161.876C455.551 161.876 455.991 161.982 456.364 162.196C456.738 162.402 457.028 162.696 457.234 163.076C457.441 163.456 457.544 163.899 457.544 164.406C457.544 164.499 457.541 164.586 457.534 164.666C457.528 164.746 457.518 164.826 457.504 164.906H453.154V164.026H456.534L456.274 164.266C456.274 163.786 456.164 163.426 455.944 163.186C455.724 162.946 455.418 162.826 455.024 162.826C454.598 162.826 454.258 162.972 454.004 163.266C453.758 163.559 453.634 163.982 453.634 164.536C453.634 165.082 453.758 165.502 454.004 165.796C454.258 166.082 454.614 166.226 455.074 166.226C455.341 166.226 455.574 166.176 455.774 166.076C455.974 165.976 456.121 165.822 456.214 165.616H457.404C457.238 166.096 456.954 166.476 456.554 166.756C456.161 167.036 455.664 167.176 455.064 167.176ZM458.487 167.076V161.976H459.717V163.176H459.747V167.076H458.487ZM462.067 167.076V163.856C462.067 163.542 461.987 163.306 461.827 163.146C461.667 162.986 461.434 162.906 461.127 162.906C460.861 162.906 460.621 162.966 460.407 163.086C460.201 163.206 460.037 163.372 459.917 163.586C459.804 163.799 459.747 164.046 459.747 164.326L459.617 163.106C459.791 162.732 460.044 162.436 460.377 162.216C460.711 161.989 461.111 161.876 461.577 161.876C462.131 161.876 462.561 162.032 462.867 162.346C463.181 162.659 463.337 163.076 463.337 163.596V167.076H462.067ZM466.715 167.176C466.088 167.176 465.625 167.029 465.325 166.736C465.031 166.436 464.885 165.989 464.885 165.396V160.816L466.155 160.346V165.426C466.155 165.672 466.221 165.856 466.355 165.976C466.488 166.096 466.698 166.156 466.985 166.156C467.098 166.156 467.198 166.149 467.285 166.136C467.378 166.116 467.465 166.092 467.545 166.066V167.046C467.465 167.086 467.351 167.116 467.205 167.136C467.058 167.162 466.895 167.176 466.715 167.176ZM463.905 162.966V161.976H467.545V162.966H463.905Z" fill="white"/>
<rect x="35" y="218.639" width="66.8513" height="46.1511" rx="5.47962" fill="#155DFC" fill-opacity="0.05"/>
<rect x="35" y="218.639" width="66.8513" height="46.1511" rx="5.47962" stroke="#155DFC" stroke-width="0.547962"/>
<path d="M58.5284 237.314C58.0084 237.314 57.5284 237.224 57.0884 237.044C56.6484 236.864 56.265 236.608 55.9384 236.274C55.6184 235.941 55.3684 235.548 55.1884 235.094C55.015 234.634 54.9284 234.131 54.9284 233.584C54.9284 232.858 55.0817 232.221 55.3884 231.674C55.695 231.121 56.1184 230.691 56.6584 230.384C57.205 230.071 57.825 229.914 58.5184 229.914C59.225 229.914 59.8484 230.071 60.3884 230.384C60.935 230.691 61.3617 231.121 61.6684 231.674C61.975 232.228 62.1284 232.868 62.1284 233.594C62.1284 234.141 62.0384 234.641 61.8584 235.094C61.685 235.548 61.435 235.941 61.1084 236.274C60.7884 236.608 60.4084 236.864 59.9684 237.044C59.5284 237.224 59.0484 237.314 58.5284 237.314ZM58.5184 236.254C58.9717 236.254 59.3684 236.141 59.7084 235.914C60.055 235.688 60.325 235.374 60.5184 234.974C60.7117 234.568 60.8084 234.101 60.8084 233.574C60.8084 233.054 60.7117 232.601 60.5184 232.214C60.3317 231.821 60.065 231.518 59.7184 231.304C59.3784 231.084 58.9784 230.974 58.5184 230.974C58.065 230.974 57.665 231.084 57.3184 231.304C56.9784 231.518 56.715 231.818 56.5284 232.204C56.3417 232.591 56.2484 233.048 56.2484 233.574C56.2484 234.108 56.3417 234.574 56.5284 234.974C56.7217 235.374 56.9884 235.688 57.3284 235.914C57.675 236.141 58.0717 236.254 58.5184 236.254ZM65.4578 237.314C64.8312 237.314 64.3678 237.168 64.0678 236.874C63.7745 236.574 63.6278 236.128 63.6278 235.534V230.954L64.8978 230.484V235.564C64.8978 235.811 64.9645 235.994 65.0978 236.114C65.2312 236.234 65.4412 236.294 65.7278 236.294C65.8412 236.294 65.9412 236.288 66.0278 236.274C66.1212 236.254 66.2078 236.231 66.2878 236.204V237.184C66.2078 237.224 66.0945 237.254 65.9478 237.274C65.8012 237.301 65.6378 237.314 65.4578 237.314ZM62.6478 233.104V232.114H66.2878V233.104H62.6478ZM67.2303 237.214V230.014H68.4903V237.214H67.2303ZM70.8103 237.214V233.994C70.8103 233.681 70.7303 233.444 70.5703 233.284C70.4103 233.124 70.177 233.044 69.8703 233.044C69.6037 233.044 69.3637 233.104 69.1503 233.224C68.9437 233.344 68.7803 233.511 68.6603 233.724C68.547 233.938 68.4903 234.184 68.4903 234.464L68.3603 233.244C68.5337 232.871 68.787 232.574 69.1203 232.354C69.4537 232.128 69.8537 232.014 70.3203 232.014C70.8737 232.014 71.3037 232.171 71.6103 232.484C71.9237 232.798 72.0803 233.214 72.0803 233.734V237.214H70.8103ZM75.6434 237.314C75.1034 237.314 74.63 237.201 74.2234 236.974C73.8234 236.748 73.51 236.434 73.2834 236.034C73.0634 235.634 72.9534 235.174 72.9534 234.654C72.9534 234.134 73.0634 233.678 73.2834 233.284C73.51 232.884 73.8234 232.574 74.2234 232.354C74.6234 232.128 75.09 232.014 75.6234 232.014C76.13 232.014 76.57 232.121 76.9434 232.334C77.3167 232.541 77.6067 232.834 77.8134 233.214C78.02 233.594 78.1234 234.038 78.1234 234.544C78.1234 234.638 78.12 234.724 78.1134 234.804C78.1067 234.884 78.0967 234.964 78.0834 235.044H73.7334V234.164H77.1134L76.8534 234.404C76.8534 233.924 76.7434 233.564 76.5234 233.324C76.3034 233.084 75.9967 232.964 75.6034 232.964C75.1767 232.964 74.8367 233.111 74.5834 233.404C74.3367 233.698 74.2134 234.121 74.2134 234.674C74.2134 235.221 74.3367 235.641 74.5834 235.934C74.8367 236.221 75.1934 236.364 75.6534 236.364C75.92 236.364 76.1534 236.314 76.3534 236.214C76.5534 236.114 76.7 235.961 76.7934 235.754H77.9834C77.8167 236.234 77.5334 236.614 77.1334 236.894C76.74 237.174 76.2434 237.314 75.6434 237.314ZM79.0663 237.214V232.114H80.2963V233.344H80.3263V237.214H79.0663ZM80.3263 234.554L80.1963 233.344C80.3163 232.911 80.5196 232.581 80.8063 232.354C81.0929 232.128 81.4363 232.014 81.8363 232.014C81.9763 232.014 82.0763 232.028 82.1363 232.054V233.244C82.1029 233.231 82.0563 233.224 81.9963 233.224C81.9363 233.218 81.8629 233.214 81.7763 233.214C81.2896 233.214 80.9263 233.321 80.6863 233.534C80.4463 233.748 80.3263 234.088 80.3263 234.554ZM55.7399 253.214V246.014H57.0399V253.214H55.7399ZM56.3599 253.214V252.184H60.9199V253.214H56.3599ZM56.3599 250.014V249.004H60.5699V250.014H56.3599ZM56.3599 247.044V246.014H60.8099V247.044H56.3599ZM65.3641 253.214L63.7941 250.934L61.6741 248.114H63.1041L64.5241 250.184L66.7941 253.214H65.3641ZM63.8941 250.144L65.3241 248.114H66.7241L64.5041 251.024L63.8941 250.144ZM64.3941 251.084L62.8541 253.214H61.4641L63.7941 250.194L64.3941 251.084ZM70.591 253.214C70.5577 253.081 70.531 252.934 70.511 252.774C70.4977 252.614 70.491 252.421 70.491 252.194H70.451V249.774C70.451 249.508 70.3743 249.308 70.221 249.174C70.0743 249.034 69.8477 248.964 69.541 248.964C69.241 248.964 69.001 249.021 68.821 249.134C68.6477 249.241 68.541 249.398 68.501 249.604H67.291C67.3443 249.131 67.571 248.748 67.971 248.454C68.371 248.161 68.9077 248.014 69.581 248.014C70.281 248.014 70.811 248.174 71.171 248.494C71.531 248.808 71.711 249.271 71.711 249.884V252.194C71.711 252.354 71.721 252.518 71.741 252.684C71.7677 252.851 71.8043 253.028 71.851 253.214H70.591ZM68.821 253.314C68.3077 253.314 67.8977 253.188 67.591 252.934C67.291 252.674 67.141 252.328 67.141 251.894C67.141 251.428 67.311 251.058 67.651 250.784C67.991 250.511 68.471 250.328 69.091 250.234L70.681 249.994V250.794L69.301 251.004C69.001 251.051 68.7743 251.134 68.621 251.254C68.4743 251.374 68.401 251.541 68.401 251.754C68.401 251.948 68.471 252.098 68.611 252.204C68.751 252.304 68.9443 252.354 69.191 252.354C69.551 252.354 69.851 252.264 70.091 252.084C70.331 251.904 70.451 251.684 70.451 251.424L70.591 252.194C70.4577 252.561 70.2377 252.841 69.931 253.034C69.631 253.221 69.261 253.314 68.821 253.314ZM72.9872 253.214V248.114H74.2172V249.314H74.2472V253.214H72.9872ZM76.4172 253.214V249.924C76.4172 249.624 76.3405 249.404 76.1872 249.264C76.0405 249.118 75.8305 249.044 75.5572 249.044C75.3172 249.044 75.0972 249.101 74.8972 249.214C74.6972 249.328 74.5372 249.488 74.4172 249.694C74.3038 249.901 74.2472 250.141 74.2472 250.414L74.1172 249.244C74.2905 248.871 74.5405 248.574 74.8672 248.354C75.1938 248.128 75.5738 248.014 76.0072 248.014C76.5272 248.014 76.9372 248.164 77.2372 248.464C77.5372 248.758 77.6872 249.138 77.6872 249.604V253.214H76.4172ZM79.8472 253.214V249.924C79.8472 249.624 79.7738 249.404 79.6272 249.264C79.4805 249.118 79.2705 249.044 78.9972 249.044C78.7505 249.044 78.5272 249.101 78.3272 249.214C78.1272 249.328 77.9705 249.488 77.8572 249.694C77.7438 249.901 77.6872 250.141 77.6872 250.414L77.4672 249.244C77.6338 248.871 77.8872 248.574 78.2272 248.354C78.5672 248.128 78.9605 248.014 79.4072 248.014C79.9405 248.014 80.3572 248.168 80.6572 248.474C80.9638 248.774 81.1172 249.174 81.1172 249.674V253.214H79.8472Z" fill="#155DFC"/>
<path d="M102.398 98.0874C147.798 135.787 176.218 148.111 232.265 155.623" stroke="#959595" stroke-width="0.547962"/>
<path d="M102.398 230.146C147.798 192.447 176.218 180.123 232.265 172.61" stroke="#959595" stroke-width="0.547962"/>
<line x1="101.852" y1="163.569" x2="232.266" y2="163.569" stroke="#959595" stroke-width="0.547962"/>
<line x1="318.844" y1="164.665" x2="405.422" y2="164.665" stroke="#959595" stroke-width="0.547962"/>
</svg>
