<svg width="526" height="330" viewBox="0 0 526 330" fill="none" xmlns="http://www.w3.org/2000/svg">
<rect width="526" height="330" rx="10" fill="white"/>
<circle cx="272.042" cy="155.931" r="75.0243" stroke="#787878" stroke-width="0.570527"/>
<circle cx="272.042" cy="155.932" r="132.077" stroke="#787878" stroke-width="0.570527"/>
<rect x="118" y="80.6218" width="74.3409" height="34.404" rx="17.202" fill="#E5EDFF"/>
<rect x="118" y="80.6218" width="74.3409" height="34.404" rx="17.202" stroke="#155DFC" stroke-width="0.625254"/>
<path d="M126.477 101.324V93.1081H127.96V101.324H126.477ZM131.851 101.324V93.1081H133.335V101.324H131.851ZM127.184 96.4628H132.524V97.6267H127.184V96.4628ZM137.449 101.438C136.833 101.438 136.289 101.309 135.818 101.05C135.354 100.791 134.992 100.434 134.734 99.9773C134.475 99.5133 134.346 98.9846 134.346 98.3912C134.346 97.7979 134.475 97.2768 134.734 96.828C134.992 96.3792 135.354 96.0292 135.818 95.7782C136.289 95.5196 136.833 95.3903 137.449 95.3903C138.073 95.3903 138.617 95.5196 139.081 95.7782C139.545 96.0292 139.906 96.3792 140.165 96.828C140.424 97.2768 140.553 97.7979 140.553 98.3912C140.553 98.9846 140.42 99.5133 140.154 99.9773C139.895 100.434 139.534 100.791 139.07 101.05C138.606 101.309 138.065 101.438 137.449 101.438ZM137.449 100.285C137.754 100.285 138.027 100.209 138.271 100.057C138.514 99.8974 138.704 99.6768 138.841 99.3953C138.978 99.1063 139.047 98.7678 139.047 98.3798C139.047 97.8093 138.895 97.3605 138.59 97.0334C138.294 96.7063 137.913 96.5427 137.449 96.5427C136.985 96.5427 136.601 96.7063 136.297 97.0334C135.993 97.3605 135.84 97.8093 135.84 98.3798C135.84 98.7678 135.909 99.1063 136.046 99.3953C136.19 99.6768 136.38 99.8974 136.616 100.057C136.86 100.209 137.137 100.285 137.449 100.285ZM141.61 101.324V95.5044H143.014V96.8736H143.048V101.324H141.61ZM145.524 101.324V97.5697C145.524 97.2273 145.437 96.9763 145.262 96.8166C145.094 96.6492 144.855 96.5655 144.543 96.5655C144.269 96.5655 144.018 96.6302 143.79 96.7595C143.562 96.8888 143.379 97.0714 143.242 97.3072C143.113 97.543 143.048 97.8169 143.048 98.1288L142.9 96.7937C143.098 96.3678 143.383 96.0292 143.756 95.7782C144.128 95.5196 144.562 95.3903 145.056 95.3903C145.65 95.3903 146.118 95.5614 146.46 95.9037C146.802 96.2384 146.973 96.672 146.973 97.2045V101.324H145.524ZM149.438 101.324V97.5697C149.438 97.2273 149.354 96.9763 149.187 96.8166C149.02 96.6492 148.78 96.5655 148.468 96.5655C148.187 96.5655 147.932 96.6302 147.704 96.7595C147.475 96.8888 147.297 97.0714 147.167 97.3072C147.038 97.543 146.973 97.8169 146.973 98.1288L146.722 96.7937C146.913 96.3678 147.202 96.0292 147.59 95.7782C147.978 95.5196 148.426 95.3903 148.936 95.3903C149.545 95.3903 150.02 95.5652 150.362 95.9151C150.712 96.2575 150.887 96.7139 150.887 97.2844V101.324H149.438ZM154.965 101.438C154.349 101.438 153.809 101.309 153.345 101.05C152.889 100.791 152.531 100.434 152.273 99.9773C152.022 99.5209 151.896 98.996 151.896 98.4026C151.896 97.8093 152.022 97.2882 152.273 96.8394C152.531 96.383 152.889 96.0292 153.345 95.7782C153.802 95.5196 154.334 95.3903 154.943 95.3903C155.521 95.3903 156.023 95.512 156.449 95.7554C156.875 95.9912 157.206 96.3259 157.442 96.7595C157.677 97.1931 157.795 97.699 157.795 98.2771C157.795 98.3836 157.791 98.4825 157.784 98.5738C157.776 98.6651 157.765 98.7564 157.75 98.8476H152.786V97.8435H156.643L156.346 98.1174C156.346 97.5697 156.221 97.1589 155.97 96.885C155.719 96.6112 155.369 96.4743 154.92 96.4743C154.433 96.4743 154.045 96.6416 153.756 96.9763C153.474 97.311 153.334 97.7941 153.334 98.4255C153.334 99.0492 153.474 99.5285 153.756 99.8632C154.045 100.19 154.452 100.354 154.977 100.354C155.281 100.354 155.547 100.297 155.776 100.183C156.004 100.069 156.171 99.8936 156.278 99.6578H157.635C157.445 100.205 157.122 100.639 156.666 100.959C156.217 101.278 155.65 101.438 154.965 101.438ZM159.936 101.324L158.155 95.5044H159.662L160.711 99.8746H160.609L161.898 95.5044H163.21L164.523 99.8746H164.408L165.447 95.5044H166.919L165.139 101.324H163.792L162.48 96.9991H162.594L161.282 101.324H159.936ZM170.366 101.438C169.75 101.438 169.206 101.309 168.734 101.05C168.27 100.791 167.909 100.434 167.65 99.9773C167.392 99.5133 167.262 98.9846 167.262 98.3912C167.262 97.7979 167.392 97.2768 167.65 96.828C167.909 96.3792 168.27 96.0292 168.734 95.7782C169.206 95.5196 169.75 95.3903 170.366 95.3903C170.99 95.3903 171.534 95.5196 171.998 95.7782C172.462 96.0292 172.823 96.3792 173.082 96.828C173.34 97.2768 173.47 97.7979 173.47 98.3912C173.47 98.9846 173.337 99.5133 173.07 99.9773C172.812 100.434 172.45 100.791 171.986 101.05C171.522 101.309 170.982 101.438 170.366 101.438ZM170.366 100.285C170.67 100.285 170.944 100.209 171.188 100.057C171.431 99.8974 171.621 99.6768 171.758 99.3953C171.895 99.1063 171.963 98.7678 171.963 98.3798C171.963 97.8093 171.811 97.3605 171.507 97.0334C171.21 96.7063 170.83 96.5427 170.366 96.5427C169.902 96.5427 169.518 96.7063 169.214 97.0334C168.909 97.3605 168.757 97.8093 168.757 98.3798C168.757 98.7678 168.826 99.1063 168.962 99.3953C169.107 99.6768 169.297 99.8974 169.533 100.057C169.776 100.209 170.054 100.285 170.366 100.285ZM174.527 101.324V95.5044H175.931V96.9079H175.965V101.324H174.527ZM175.965 98.2885L175.817 96.9079C175.953 96.4134 176.186 96.0368 176.513 95.7782C176.84 95.5196 177.231 95.3903 177.688 95.3903C177.848 95.3903 177.962 95.4055 178.03 95.4359V96.7937C177.992 96.7785 177.939 96.7709 177.87 96.7709C177.802 96.7633 177.718 96.7595 177.619 96.7595C177.064 96.7595 176.65 96.8812 176.376 97.1247C176.102 97.3681 175.965 97.756 175.965 98.2885ZM178.973 101.324V93.0283H180.411V101.324H178.973ZM182.727 101.324L180.08 98.2999L182.647 95.5044H184.382L181.415 98.5624L181.495 98.0261L184.496 101.324H182.727Z" fill="#155DFC"/>
<rect x="180.758" y="161.637" width="43.5324" height="34.404" rx="17.202" fill="#E5EDFF"/>
<rect x="180.758" y="161.637" width="43.5324" height="34.404" rx="17.202" stroke="#155DFC" stroke-width="0.625254"/>
<path d="M191.731 182.339V175.298H189.004V174.123H195.942V175.298H193.214V182.339H191.731ZM196.904 182.339V176.519H198.341V182.339H196.904ZM196.835 175.561V173.975H198.398V175.561H196.835ZM199.868 182.339V176.519H201.271V177.889H201.305V182.339H199.868ZM203.782 182.339V178.585C203.782 178.242 203.694 177.991 203.519 177.831C203.352 177.664 203.112 177.58 202.8 177.58C202.526 177.58 202.275 177.645 202.047 177.774C201.819 177.904 201.636 178.086 201.499 178.322C201.37 178.558 201.305 178.832 201.305 179.144L201.157 177.809C201.355 177.383 201.64 177.044 202.013 176.793C202.386 176.534 202.819 176.405 203.314 176.405C203.907 176.405 204.375 176.576 204.717 176.919C205.06 177.253 205.231 177.687 205.231 178.219V182.339H203.782ZM207.695 182.339V178.585C207.695 178.242 207.612 177.991 207.444 177.831C207.277 177.664 207.037 177.58 206.725 177.58C206.444 177.58 206.189 177.645 205.961 177.774C205.733 177.904 205.554 178.086 205.425 178.322C205.295 178.558 205.231 178.832 205.231 179.144L204.98 177.809C205.17 177.383 205.459 177.044 205.847 176.793C206.235 176.534 206.684 176.405 207.193 176.405C207.802 176.405 208.277 176.58 208.62 176.93C208.97 177.272 209.145 177.729 209.145 178.299V182.339H207.695ZM213.223 182.453C212.607 182.453 212.066 182.323 211.602 182.065C211.146 181.806 210.788 181.449 210.53 180.992C210.279 180.536 210.153 180.011 210.153 179.418C210.153 178.824 210.279 178.303 210.53 177.854C210.788 177.398 211.146 177.044 211.602 176.793C212.059 176.534 212.591 176.405 213.2 176.405C213.778 176.405 214.28 176.527 214.706 176.77C215.132 177.006 215.463 177.341 215.699 177.774C215.935 178.208 216.053 178.714 216.053 179.292C216.053 179.399 216.049 179.497 216.041 179.589C216.034 179.68 216.022 179.771 216.007 179.863H211.043V178.858H214.9L214.603 179.132C214.603 178.585 214.478 178.174 214.227 177.9C213.976 177.626 213.626 177.489 213.177 177.489C212.69 177.489 212.302 177.656 212.013 177.991C211.732 178.326 211.591 178.809 211.591 179.44C211.591 180.064 211.732 180.543 212.013 180.878C212.302 181.205 212.709 181.369 213.234 181.369C213.538 181.369 213.805 181.312 214.033 181.198C214.261 181.083 214.428 180.909 214.535 180.673H215.893C215.703 181.22 215.379 181.654 214.923 181.973C214.474 182.293 213.907 182.453 213.223 182.453Z" fill="#155DFC"/>
<rect x="241.234" y="63.5061" width="52.6609" height="34.404" rx="17.202" fill="#E5EDFF"/>
<rect x="241.234" y="63.5061" width="52.6609" height="34.404" rx="17.202" stroke="#155DFC" stroke-width="0.625254"/>
<path d="M252.902 84.3107C251.867 84.3107 251.042 84.0749 250.426 83.6032C249.817 83.124 249.46 82.4508 249.353 81.5836H250.78C250.848 82.0856 251.072 82.4774 251.453 82.7589C251.833 83.0327 252.331 83.1696 252.948 83.1696C253.457 83.1696 253.845 83.0784 254.111 82.8958C254.385 82.7056 254.522 82.4432 254.522 82.1085C254.522 81.8118 254.439 81.5722 254.271 81.3896C254.104 81.207 253.822 81.0587 253.427 80.9446L251.943 80.4996C251.19 80.2714 250.635 79.9709 250.278 79.5982C249.928 79.2254 249.753 78.7576 249.753 78.1947C249.753 77.723 249.874 77.3122 250.118 76.9623C250.361 76.6124 250.704 76.3423 251.145 76.1522C251.594 75.962 252.115 75.8669 252.708 75.8669C253.621 75.8669 254.347 76.0913 254.887 76.5401C255.435 76.9813 255.747 77.5823 255.823 78.343H254.397C254.313 77.8866 254.123 77.5519 253.826 77.3389C253.53 77.1183 253.13 77.008 252.628 77.008C252.187 77.008 251.837 77.0954 251.578 77.2704C251.32 77.4454 251.19 77.685 251.19 77.9893C251.19 78.2403 251.266 78.4533 251.419 78.6283C251.578 78.8032 251.871 78.9554 252.297 79.0847L253.803 79.5411C254.556 79.7617 255.104 80.0622 255.446 80.4425C255.789 80.8229 255.96 81.3059 255.96 81.8917C255.96 82.6676 255.69 83.2647 255.15 83.6831C254.617 84.1015 253.868 84.3107 252.902 84.3107ZM259.54 84.3221C258.954 84.3221 258.437 84.1928 257.988 83.9342C257.547 83.6755 257.197 83.318 256.939 82.8616C256.688 82.3975 256.562 81.8727 256.562 81.2869C256.562 80.7012 256.688 80.1839 256.939 79.7351C257.197 79.2787 257.547 78.9211 257.988 78.6625C258.437 78.4038 258.954 78.2745 259.54 78.2745C260.019 78.2745 260.453 78.3658 260.841 78.5484C261.229 78.7233 261.548 78.9744 261.799 79.3015C262.051 79.621 262.21 79.9937 262.279 80.4197H260.898C260.814 80.1078 260.655 79.8644 260.419 79.6894C260.183 79.5145 259.898 79.427 259.563 79.427C259.251 79.427 258.981 79.5031 258.753 79.6552C258.532 79.8073 258.361 80.0241 258.239 80.3056C258.118 80.5871 258.057 80.9142 258.057 81.2869C258.057 81.6673 258.118 81.9982 258.239 82.2796C258.361 82.5611 258.536 82.7817 258.764 82.9414C258.992 83.0936 259.259 83.1696 259.563 83.1696C259.898 83.1696 260.183 83.0822 260.419 82.9072C260.655 82.7322 260.814 82.4888 260.898 82.1769H262.279C262.21 82.6029 262.047 82.9795 261.788 83.3066C261.537 83.6261 261.218 83.8771 260.83 84.0597C260.449 84.2346 260.019 84.3221 259.54 84.3221ZM263.314 84.208V75.9924H264.752V84.208H263.314ZM267.399 84.208V80.5338C267.399 80.1763 267.308 79.9062 267.125 79.7237C266.943 79.5411 266.677 79.4498 266.327 79.4498C266.022 79.4498 265.749 79.5183 265.505 79.6552C265.269 79.7921 265.083 79.9823 264.946 80.2257C264.817 80.4692 264.752 80.7506 264.752 81.0701L264.604 79.678C264.801 79.252 265.091 78.9135 265.471 78.6625C265.851 78.4038 266.308 78.2745 266.84 78.2745C267.472 78.2745 267.962 78.4533 268.312 78.8108C268.67 79.1684 268.848 79.6438 268.848 80.2371V84.208H267.399ZM272.948 84.3221C272.332 84.3221 271.788 84.1928 271.317 83.9342C270.853 83.6755 270.491 83.318 270.233 82.8616C269.974 82.3975 269.845 81.8688 269.845 81.2755C269.845 80.6822 269.974 80.1611 270.233 79.7123C270.491 79.2634 270.853 78.9135 271.317 78.6625C271.788 78.4038 272.332 78.2745 272.948 78.2745C273.572 78.2745 274.116 78.4038 274.58 78.6625C275.044 78.9135 275.405 79.2634 275.664 79.7123C275.923 80.1611 276.052 80.6822 276.052 81.2755C276.052 81.8688 275.919 82.3975 275.653 82.8616C275.394 83.318 275.033 83.6755 274.569 83.9342C274.105 84.1928 273.564 84.3221 272.948 84.3221ZM272.948 83.1696C273.253 83.1696 273.526 83.0936 273.77 82.9414C274.013 82.7817 274.203 82.5611 274.34 82.2796C274.477 81.9906 274.546 81.652 274.546 81.2641C274.546 80.6936 274.394 80.2447 274.089 79.9176C273.793 79.5905 273.412 79.427 272.948 79.427C272.484 79.427 272.1 79.5905 271.796 79.9176C271.492 80.2447 271.339 80.6936 271.339 81.2641C271.339 81.652 271.408 81.9906 271.545 82.2796C271.689 82.5611 271.88 82.7817 272.115 82.9414C272.359 83.0936 272.636 83.1696 272.948 83.1696ZM279.757 84.3221C279.141 84.3221 278.597 84.1928 278.125 83.9342C277.661 83.6755 277.3 83.318 277.041 82.8616C276.782 82.3975 276.653 81.8688 276.653 81.2755C276.653 80.6822 276.782 80.1611 277.041 79.7123C277.3 79.2634 277.661 78.9135 278.125 78.6625C278.597 78.4038 279.141 78.2745 279.757 78.2745C280.38 78.2745 280.924 78.4038 281.388 78.6625C281.852 78.9135 282.214 79.2634 282.472 79.7123C282.731 80.1611 282.86 80.6822 282.86 81.2755C282.86 81.8688 282.727 82.3975 282.461 82.8616C282.202 83.318 281.841 83.6755 281.377 83.9342C280.913 84.1928 280.373 84.3221 279.757 84.3221ZM279.757 83.1696C280.061 83.1696 280.335 83.0936 280.578 82.9414C280.822 82.7817 281.012 82.5611 281.149 82.2796C281.286 81.9906 281.354 81.652 281.354 81.2641C281.354 80.6936 281.202 80.2447 280.898 79.9176C280.601 79.5905 280.221 79.427 279.757 79.427C279.293 79.427 278.909 79.5905 278.604 79.9176C278.3 80.2447 278.148 80.6936 278.148 81.2641C278.148 81.652 278.216 81.9906 278.353 82.2796C278.498 82.5611 278.688 82.7817 278.924 82.9414C279.167 83.0936 279.445 83.1696 279.757 83.1696ZM283.918 84.208V75.9924H285.356V84.208H283.918Z" fill="#155DFC"/>
<rect x="322.249" y="144.521" width="45.8145" height="34.404" rx="17.202" fill="#E5EDFF"/>
<rect x="322.249" y="144.521" width="45.8145" height="34.404" rx="17.202" stroke="#155DFC" stroke-width="0.625254"/>
<path d="M330.681 165.223V157.007H332.164V165.223H330.681ZM331.388 165.223V164.048H336.592V165.223H331.388ZM331.388 161.572V160.419H336.192V161.572H331.388ZM331.388 158.183V157.007H336.466V158.183H331.388ZM341.663 165.223L339.871 162.621L337.452 159.404H339.084L340.704 161.766L343.294 165.223H341.663ZM339.985 161.72L341.617 159.404H343.214L340.681 162.724L339.985 161.72ZM340.556 162.792L338.799 165.223H337.213L339.871 161.777L340.556 162.792ZM347.627 165.223C347.589 165.071 347.558 164.903 347.535 164.721C347.52 164.538 347.513 164.318 347.513 164.059H347.467V161.298C347.467 160.993 347.38 160.765 347.205 160.613C347.037 160.453 346.779 160.373 346.429 160.373C346.086 160.373 345.812 160.438 345.607 160.567C345.409 160.689 345.288 160.868 345.242 161.104H343.861C343.922 160.564 344.181 160.126 344.637 159.791C345.094 159.457 345.706 159.289 346.474 159.289C347.273 159.289 347.878 159.472 348.289 159.837C348.699 160.195 348.905 160.723 348.905 161.423V164.059C348.905 164.242 348.916 164.428 348.939 164.618C348.969 164.808 349.011 165.01 349.064 165.223H347.627ZM345.607 165.337C345.021 165.337 344.554 165.192 344.204 164.903C343.861 164.607 343.69 164.211 343.69 163.717C343.69 163.184 343.884 162.762 344.272 162.45C344.66 162.138 345.208 161.929 345.915 161.823L347.729 161.549V162.462L346.155 162.701C345.812 162.754 345.554 162.85 345.379 162.986C345.212 163.123 345.128 163.314 345.128 163.557C345.128 163.778 345.208 163.949 345.367 164.07C345.527 164.185 345.748 164.242 346.029 164.242C346.44 164.242 346.782 164.139 347.056 163.934C347.33 163.728 347.467 163.477 347.467 163.18L347.627 164.059C347.475 164.477 347.224 164.797 346.874 165.018C346.531 165.231 346.109 165.337 345.607 165.337ZM350.361 165.223V159.404H351.764V160.773H351.799V165.223H350.361ZM354.275 165.223V161.469C354.275 161.127 354.187 160.875 354.012 160.716C353.845 160.548 353.605 160.465 353.293 160.465C353.02 160.465 352.769 160.529 352.54 160.659C352.312 160.788 352.13 160.971 351.993 161.206C351.863 161.442 351.799 161.716 351.799 162.028L351.65 160.693C351.848 160.267 352.133 159.928 352.506 159.677C352.879 159.419 353.312 159.289 353.807 159.289C354.4 159.289 354.868 159.461 355.21 159.803C355.553 160.138 355.724 160.571 355.724 161.104V165.223H354.275ZM358.189 165.223V161.469C358.189 161.127 358.105 160.875 357.938 160.716C357.77 160.548 357.531 160.465 357.219 160.465C356.937 160.465 356.682 160.529 356.454 160.659C356.226 160.788 356.047 160.971 355.918 161.206C355.789 161.442 355.724 161.716 355.724 162.028L355.473 160.693C355.663 160.267 355.952 159.928 356.34 159.677C356.728 159.419 357.177 159.289 357.686 159.289C358.295 159.289 358.77 159.464 359.113 159.814C359.463 160.157 359.638 160.613 359.638 161.184V165.223H358.189Z" fill="#155DFC"/>
<rect x="241.234" y="271.178" width="60.6482" height="34.404" rx="17.202" fill="#E5EDFF"/>
<rect x="241.234" y="271.178" width="60.6482" height="34.404" rx="17.202" stroke="#155DFC" stroke-width="0.625254"/>
<path d="M249.744 291.88V283.664H253.213C253.799 283.664 254.309 283.763 254.742 283.961C255.176 284.159 255.507 284.436 255.735 284.794C255.971 285.151 256.089 285.57 256.089 286.049C256.089 286.52 255.971 286.935 255.735 287.293C255.507 287.65 255.176 287.928 254.742 288.126C254.309 288.323 253.799 288.422 253.213 288.422H250.908V287.293H253.167C253.647 287.293 254.012 287.182 254.263 286.962C254.522 286.741 254.651 286.437 254.651 286.049C254.651 285.661 254.525 285.364 254.274 285.159C254.023 284.946 253.654 284.839 253.167 284.839H251.228V291.88H249.744ZM254.445 291.88L250.783 287.681H252.449L256.499 291.88H254.445ZM259.68 291.994C259.064 291.994 258.524 291.864 258.06 291.606C257.604 291.347 257.246 290.99 256.988 290.533C256.737 290.077 256.611 289.552 256.611 288.959C256.611 288.365 256.737 287.844 256.988 287.395C257.246 286.939 257.604 286.585 258.06 286.334C258.517 286.075 259.049 285.946 259.658 285.946C260.236 285.946 260.738 286.068 261.164 286.311C261.59 286.547 261.921 286.882 262.157 287.315C262.392 287.749 262.51 288.255 262.51 288.833C262.51 288.94 262.506 289.038 262.499 289.13C262.491 289.221 262.48 289.312 262.465 289.404H257.501V288.399H261.358L261.061 288.673C261.061 288.126 260.936 287.715 260.685 287.441C260.434 287.167 260.084 287.03 259.635 287.03C259.148 287.03 258.76 287.198 258.471 287.532C258.189 287.867 258.049 288.35 258.049 288.981C258.049 289.605 258.189 290.084 258.471 290.419C258.76 290.746 259.167 290.91 259.692 290.91C259.996 290.91 260.262 290.853 260.491 290.739C260.719 290.624 260.886 290.45 260.993 290.214H262.351C262.16 290.761 261.837 291.195 261.381 291.515C260.932 291.834 260.365 291.994 259.68 291.994ZM265.05 291.88L262.723 286.06H264.275L266.134 291.412H265.37L267.23 286.06H268.736L266.397 291.88H265.05ZM269.459 291.88V286.06H270.896V291.88H269.459ZM269.39 285.102V283.516H270.953V285.102H269.39ZM274.625 291.994C273.819 291.994 273.176 291.826 272.697 291.492C272.218 291.149 271.955 290.678 271.91 290.077H273.222C273.26 290.373 273.401 290.598 273.644 290.75C273.888 290.902 274.215 290.978 274.625 290.978C274.998 290.978 275.276 290.921 275.458 290.807C275.649 290.685 275.744 290.514 275.744 290.294C275.744 290.134 275.69 290.005 275.584 289.906C275.477 289.799 275.276 289.712 274.979 289.643L274.043 289.426C273.404 289.289 272.929 289.076 272.617 288.787C272.313 288.491 272.161 288.122 272.161 287.681C272.161 287.14 272.366 286.718 272.777 286.414C273.195 286.102 273.77 285.946 274.5 285.946C275.223 285.946 275.801 286.102 276.234 286.414C276.676 286.718 276.919 287.14 276.965 287.681H275.652C275.614 287.445 275.493 287.266 275.287 287.144C275.089 287.023 274.816 286.962 274.466 286.962C274.139 286.962 273.891 287.015 273.724 287.121C273.557 287.22 273.473 287.369 273.473 287.566C273.473 287.719 273.538 287.848 273.667 287.954C273.796 288.053 274.013 288.141 274.317 288.217L275.321 288.445C275.892 288.574 276.322 288.799 276.611 289.118C276.908 289.438 277.056 289.814 277.056 290.248C277.056 290.803 276.843 291.233 276.417 291.537C275.991 291.842 275.394 291.994 274.625 291.994ZM278.072 291.88V286.06H279.51V291.88H278.072ZM278.004 285.102V283.516H279.567V285.102H278.004ZM283.661 291.994C283.045 291.994 282.501 291.864 282.03 291.606C281.565 291.347 281.204 290.99 280.946 290.533C280.687 290.069 280.558 289.54 280.558 288.947C280.558 288.354 280.687 287.833 280.946 287.384C281.204 286.935 281.565 286.585 282.03 286.334C282.501 286.075 283.045 285.946 283.661 285.946C284.285 285.946 284.829 286.075 285.293 286.334C285.757 286.585 286.118 286.935 286.377 287.384C286.636 287.833 286.765 288.354 286.765 288.947C286.765 289.54 286.632 290.069 286.366 290.533C286.107 290.99 285.746 291.347 285.282 291.606C284.817 291.864 284.277 291.994 283.661 291.994ZM283.661 290.841C283.966 290.841 284.239 290.765 284.483 290.613C284.726 290.453 284.916 290.233 285.053 289.951C285.19 289.662 285.259 289.324 285.259 288.936C285.259 288.365 285.107 287.916 284.802 287.589C284.506 287.262 284.125 287.099 283.661 287.099C283.197 287.099 282.813 287.262 282.509 287.589C282.204 287.916 282.052 288.365 282.052 288.936C282.052 289.324 282.121 289.662 282.258 289.951C282.402 290.233 282.592 290.453 282.828 290.613C283.072 290.765 283.349 290.841 283.661 290.841ZM287.822 291.88V286.06H289.226V287.43H289.26V291.88H287.822ZM291.907 291.88V288.205C291.907 287.848 291.816 287.578 291.634 287.395C291.451 287.213 291.185 287.121 290.835 287.121C290.531 287.121 290.257 287.19 290.013 287.327C289.777 287.464 289.591 287.654 289.454 287.897C289.325 288.141 289.26 288.422 289.26 288.742L289.112 287.35C289.31 286.924 289.599 286.585 289.979 286.334C290.359 286.075 290.816 285.946 291.348 285.946C291.98 285.946 292.47 286.125 292.82 286.482C293.178 286.84 293.357 287.315 293.357 287.909V291.88H291.907Z" fill="#155DFC"/>
<rect x="361.044" y="80.6218" width="46.9556" height="34.404" rx="17.202" fill="#E5EDFF"/>
<rect x="361.044" y="80.6218" width="46.9556" height="34.404" rx="17.202" stroke="#155DFC" stroke-width="0.625254"/>
<path d="M370.977 101.324V100.228H373.271C373.689 100.228 374.012 100.114 374.24 99.886C374.469 99.6502 374.583 99.3307 374.583 98.9275C374.583 98.5091 374.461 98.1782 374.218 97.9348C373.974 97.6914 373.636 97.5697 373.202 97.5697H370.977V96.4743H373.099C373.51 96.4743 373.826 96.3754 374.046 96.1776C374.267 95.9798 374.377 95.6945 374.377 95.3218C374.377 94.9567 374.271 94.679 374.058 94.4888C373.853 94.2986 373.548 94.2036 373.145 94.2036H370.977V93.1081H373.419C374.157 93.1081 374.746 93.2945 375.188 93.6673C375.636 94.0324 375.861 94.5307 375.861 95.162C375.861 95.5576 375.766 95.9037 375.576 96.2004C375.393 96.4895 375.146 96.7139 374.834 96.8736C374.522 97.0334 374.168 97.1132 373.773 97.1132L373.83 96.8736C374.248 96.8736 374.628 96.9687 374.971 97.1589C375.313 97.3415 375.583 97.6001 375.781 97.9348C375.986 98.2695 376.089 98.6575 376.089 99.0987C376.089 99.5475 375.982 99.9393 375.769 100.274C375.564 100.609 375.271 100.867 374.891 101.05C374.518 101.232 374.077 101.324 373.567 101.324H370.977ZM369.813 101.324V93.1081H371.297V101.324H369.813ZM377.225 101.324V95.5044H378.628V96.9079H378.662V101.324H377.225ZM378.662 98.2885L378.514 96.9079C378.651 96.4134 378.883 96.0368 379.21 95.7782C379.537 95.5196 379.929 95.3903 380.385 95.3903C380.545 95.3903 380.659 95.4055 380.728 95.4359V96.7937C380.69 96.7785 380.636 96.7709 380.568 96.7709C380.5 96.7633 380.416 96.7595 380.317 96.7595C379.762 96.7595 379.347 96.8812 379.073 97.1247C378.799 97.3681 378.662 97.756 378.662 98.2885ZM384.161 101.438C383.545 101.438 383.005 101.309 382.541 101.05C382.085 100.791 381.727 100.434 381.468 99.9773C381.217 99.5209 381.092 98.996 381.092 98.4026C381.092 97.8093 381.217 97.2882 381.468 96.8394C381.727 96.383 382.085 96.0292 382.541 95.7782C382.997 95.5196 383.53 95.3903 384.138 95.3903C384.717 95.3903 385.219 95.512 385.645 95.7554C386.071 95.9912 386.401 96.3259 386.637 96.7595C386.873 97.1931 386.991 97.699 386.991 98.2771C386.991 98.3836 386.987 98.4825 386.98 98.5738C386.972 98.6651 386.961 98.7564 386.945 98.8476H381.982V97.8435H385.839L385.542 98.1174C385.542 97.5697 385.416 97.1589 385.165 96.885C384.914 96.6112 384.564 96.4743 384.116 96.4743C383.629 96.4743 383.241 96.6416 382.952 96.9763C382.67 97.311 382.53 97.7941 382.53 98.4255C382.53 99.0492 382.67 99.5285 382.952 99.8632C383.241 100.19 383.648 100.354 384.173 100.354C384.477 100.354 384.743 100.297 384.971 100.183C385.2 100.069 385.367 99.8936 385.473 99.6578H386.831C386.641 100.205 386.318 100.639 385.861 100.959C385.413 101.278 384.846 101.438 384.161 101.438ZM391.606 101.324C391.568 101.172 391.538 101.004 391.515 100.822C391.5 100.639 391.492 100.418 391.492 100.16H391.447V97.3985C391.447 97.0942 391.359 96.866 391.184 96.7139C391.017 96.5541 390.758 96.4743 390.408 96.4743C390.066 96.4743 389.792 96.5389 389.587 96.6682C389.389 96.7899 389.267 96.9687 389.222 97.2045H387.841C387.902 96.6644 388.16 96.227 388.617 95.8923C389.073 95.5576 389.686 95.3903 390.454 95.3903C391.253 95.3903 391.857 95.5728 392.268 95.938C392.679 96.2955 392.884 96.8242 392.884 97.524V100.16C392.884 100.342 392.896 100.529 392.919 100.719C392.949 100.909 392.991 101.111 393.044 101.324H391.606ZM389.587 101.438C389.001 101.438 388.533 101.293 388.183 101.004C387.841 100.708 387.67 100.312 387.67 99.8175C387.67 99.285 387.864 98.8629 388.252 98.551C388.64 98.2391 389.187 98.0299 389.895 97.9234L391.709 97.6495V98.5624L390.134 98.802C389.792 98.8553 389.533 98.9503 389.358 99.0873C389.191 99.2242 389.107 99.4144 389.107 99.6578C389.107 99.8784 389.187 100.05 389.347 100.171C389.507 100.285 389.727 100.342 390.009 100.342C390.42 100.342 390.762 100.24 391.036 100.034C391.31 99.829 391.447 99.5779 391.447 99.2812L391.606 100.16C391.454 100.578 391.203 100.898 390.853 101.118C390.511 101.331 390.089 101.438 389.587 101.438ZM394.34 101.324V93.0283H395.778V101.324H394.34ZM398.095 101.324L395.447 98.2999L398.015 95.5044H399.749L396.782 98.5624L396.862 98.0261L399.863 101.324H398.095Z" fill="#155DFC"/>
</svg>
