<svg width="50" height="50" viewBox="0 0 50 50" fill="none" xmlns="http://www.w3.org/2000/svg">
<ellipse cx="25" cy="25" rx="25" ry="25" fill="#DBE6FF"/>
<mask id="mask0_1500_225" style="mask-type:alpha" maskUnits="userSpaceOnUse" x="11" y="11" width="28" height="28">
<rect x="11.017" y="11.8643" width="27.1187" height="27.1186" fill="#D9D9D9"/>
</mask>
<g mask="url(#mask0_1500_225)">
<path d="M14.4069 35.5932V30.7909L29.3221 15.9039C29.5481 15.6968 29.7976 15.5367 30.0707 15.4237C30.3438 15.3107 30.631 15.2542 30.9323 15.2542C31.2336 15.2542 31.5255 15.3107 31.808 15.4237C32.0905 15.5367 32.3353 15.7062 32.5425 15.9322L34.0961 17.5141C34.3221 17.7213 34.4869 17.9661 34.5905 18.2486C34.6941 18.531 34.7458 18.8135 34.7458 19.096C34.7458 19.3973 34.6941 19.6845 34.5905 19.9576C34.4869 20.2307 34.3221 20.4802 34.0961 20.7062L19.2091 35.5932H14.4069ZM30.904 20.6779L32.486 19.096L30.904 17.5141L29.3221 19.096L30.904 20.6779Z" fill="#155DFC"/>
</g>
</svg>
