<svg width="17" height="17" viewBox="0 0 17 17" fill="none" xmlns="http://www.w3.org/2000/svg">
<path d="M12.229 1.27087C12.042 1.08286 11.788 0.976828 11.5228 0.976078C11.2577 0.975328 11.0031 1.07993 10.815 1.26687C10.7157 1.36792 10.639 1.48893 10.59 1.62187C9.758 3.35787 8.842 4.33687 7.686 4.91487C6.389 5.55487 4.9 5.99987 2.5 5.99987C2.3027 6.00132 2.11015 6.06052 1.94612 6.17017C1.78209 6.27982 1.65377 6.43511 1.577 6.61687C1.5013 6.79964 1.4815 7.00076 1.52013 7.19479C1.55876 7.38881 1.65407 7.56702 1.794 7.70687L5.037 10.9499L0.5 16.9999L6.55 12.4629L9.792 15.7049C9.8853 15.798 9.99609 15.8717 10.118 15.9219C10.2413 15.9732 10.3687 15.9992 10.5 15.9999C10.697 16.0009 10.76 15.9729 10.882 15.9219C11.0646 15.8464 11.2207 15.7186 11.3307 15.5545C11.4406 15.3904 11.4996 15.1974 11.5 14.9999C11.5 12.5999 11.944 11.1109 12.583 9.83387C13.16 8.67787 14.139 7.76187 15.876 6.92987C16.0086 6.88074 16.1292 6.80405 16.23 6.70487C16.4169 6.51681 16.5215 6.2622 16.5208 5.99704C16.52 5.73187 16.414 5.47786 16.226 5.29087L12.229 1.27087Z" fill="black"/>
</svg>
