<svg width="24" height="25" viewBox="0 0 24 25" fill="none" xmlns="http://www.w3.org/2000/svg">
<path d="M10 7.5L9.484 8.894C8.808 10.722 8.47 11.636 7.803 12.303C7.136 12.97 6.222 13.308 4.394 13.984L3 14.5L4.394 15.016C6.222 15.692 7.136 16.031 7.803 16.697C8.46941 17.3624 8.80741 18.2764 9.48222 20.1012L9.484 20.106L10 21.5L10.516 20.106C11.192 18.278 11.531 17.364 12.197 16.697C12.8624 16.0306 13.7764 15.6926 15.6012 15.0178L15.606 15.016L17 14.5L15.606 13.984C13.778 13.308 12.864 12.97 12.197 12.303C11.53 11.636 11.192 10.722 10.516 8.894L10 7.5Z" fill="#155DFC"/>
<path d="M18 3.5L17.779 4.097C17.489 4.881 17.344 5.273 17.059 5.558C16.773 5.844 16.381 5.989 15.597 6.278L15 6.5L15.598 6.721L15.6004 6.7219C16.3818 7.0113 16.7733 7.15629 17.058 7.441C17.344 7.727 17.489 8.119 17.778 8.903L18 9.5L18.221 8.903C18.511 8.119 18.656 7.727 18.941 7.442C19.227 7.156 19.619 7.011 20.403 6.722L21 6.5L20.402 6.279L20.3996 6.2781C19.6182 5.9887 19.2267 5.84371 18.942 5.559C18.656 5.273 18.511 4.881 18.222 4.097L18 3.5Z" fill="#155DFC"/>
<path d="M10 7.5L9.484 8.894C8.808 10.722 8.47 11.636 7.803 12.303C7.136 12.97 6.222 13.308 4.394 13.984L3 14.5L4.394 15.016C6.222 15.692 7.136 16.031 7.803 16.697C8.46941 17.3624 8.80741 18.2764 9.48222 20.1012L9.484 20.106L10 21.5L10.516 20.106C11.192 18.278 11.531 17.364 12.197 16.697C12.8624 16.0306 13.7764 15.6926 15.6012 15.0178L15.606 15.016L17 14.5L15.606 13.984C13.778 13.308 12.864 12.97 12.197 12.303C11.53 11.636 11.192 10.722 10.516 8.894L10 7.5Z" stroke="#155DFC" stroke-width="1.5" stroke-linecap="round" stroke-linejoin="round"/>
<path d="M18 3.5L17.779 4.097C17.489 4.881 17.344 5.273 17.059 5.558C16.773 5.844 16.381 5.989 15.597 6.278L15 6.5L15.598 6.721L15.6004 6.7219C16.3818 7.0113 16.7733 7.15629 17.058 7.441C17.344 7.727 17.489 8.119 17.778 8.903L18 9.5L18.221 8.903C18.511 8.119 18.656 7.727 18.941 7.442C19.227 7.156 19.619 7.011 20.403 6.722L21 6.5L20.402 6.279L20.3996 6.2781C19.6182 5.9887 19.2267 5.84371 18.942 5.559C18.656 5.273 18.511 4.881 18.222 4.097L18 3.5Z" stroke="#155DFC" stroke-width="1.5" stroke-linecap="round" stroke-linejoin="round"/>
</svg>
